<svg version="1.0" xmlns="http://www.w3.org/2000/svg" width="828" height="809.333" viewBox="0 0 621 607">
    <rect width="100%" height="100%" fill="#fff" />
    <path
        d="M171 39.3c-1.9.6-5.6 3.2-8.1 5.7-5.9 5.9-6.9 10.1-6.9 29.5 0 10-.3 14.5-1.1 14.5-.6 0-9.1 3.2-18.8 7.1-9.7 4-19.6 8-22.1 8.9-2.5 1-12.4 4.9-22 8.8-9.6 3.8-26.7 10.6-38 15.1s-21.4 8.6-22.5 9.1c-1.1.5-5.5 2.3-9.8 4-14.7 6-14.6 9.5.7 26 3.4 3.6 7.7 8.3 9.6 10.5 2 2.2 12.1 13.4 22.5 24.9C65 214.8 73.6 225 73.7 225.9c.2.9-1.6 3.6-4 6.2-2.3 2.5-7.8 8.5-12.2 13.4-4.4 4.9-8.7 9.6-9.5 10.5-.8.8-5.3 5.8-10 11s-11.3 12.3-14.7 15.9C13.8 293.1 11 297 11 300.1c0 5.1 3.5 7.4 22.5 15 9.9 3.9 23.9 9.5 31 12.3l13 5.2.5 74.4c.3 41 .9 75.2 1.3 76.2 1.1 2.1 7 4.4 29.2 11.3 9.9 3.1 24.8 7.8 33 10.5 14.6 4.7 39 12.5 78.5 25 10.7 3.4 24.9 7.9 31.5 10 41.3 13.3 56.3 18 57.4 18 .6 0 7.3-2 14.9-4.5 12-3.9 109.4-34.9 171.7-54.7 12.1-3.8 26.1-8.3 31.2-9.9 6.1-2 9.7-3.7 10.8-5.1 1.3-2 1.5-11.2 1.5-75.9 0-59 .3-73.9 1.3-74.7 1-.9 31.6-13.5 54.1-22.4 8.2-3.2 10.3-4.6 11.5-7.6 2.1-5 .8-6.8-19.9-29.2-1.4-1.5-4.7-5.1-7.4-8.1s-8.5-9.5-13.1-14.4c-14.2-15.6-22.5-25-22.5-25.5s11-12.8 21.4-24c2.8-3 7.1-7.8 9.5-10.5 2.4-2.8 6.5-7.3 9-10 24.8-27 25-27.3 22.6-33-.7-1.9-1.5-3.5-1.7-3.5-.2 0-31.1-12.4-68.8-27.6-68.4-27.5-75.2-30.2-93-36.7-27.2-9.9-70.8-25.9-73-26.8-1.8-.7-3.1-2.4-4.3-5.9-1.4-4-2.6-5.5-6.1-7.5l-4.3-2.5-89.9.1c-62.8.1-91 .4-93.4 1.2zm182.6 10.1c1.8 1.4 1.9 3.2 1.9 66.3v64.8h-189l-.3-63.9c-.2-56 0-64.2 1.3-66.3L169 48h91.3c77.3 0 91.6.2 93.3 1.4zm20.5 23.1c2.5.7 7.1 2.2 10.2 3.4 3.1 1.1 8.2 3 11.2 4.2 3 1.1 5.5 2.5 5.5 3 0 .6-6.8.8-17.2.7l-17.3-.3-.3-6.9c-.3-6.3-.1-6.8 1.5-6.1 1 .4 3.9 1.3 6.4 2zm12.1 49.2c.3 25.8.4 28 2.3 31.3 1.2 1.9 3.6 4.3 5.5 5.5 3.3 1.9 5.5 2 31.3 2.3l27.7.3v23.5c0 29.1.9 27.4-14.9 27.4h-10.9l-1.7-5.3c-3.8-11.7-13-20.8-24.4-24.1-3.9-1.1-9.8-1.6-20.3-1.6H366V94h19.9l.3 27.7zm30.1-25.5c1.4 1.3 10.1 10.8 19.3 21.3l16.9 18.9.3 6.8.4 6.8h-26.9c-19.6 0-27.2-.3-28.1-1.2-.9-.9-1.2-8.5-1.2-28V94h8.4c7.4 0 8.8.3 10.9 2.2zm31.3 4.7c9.3 3.8 43.2 17.4 75.3 30.2 32.1 12.8 58.6 23.9 58.8 24.6.4 1-10.7 14.4-17.7 21.3-.3.3-4.8 5.2-10 11s-11.6 12.7-14.1 15.5c-2.6 2.7-5.9 6.5-7.4 8.2-1.5 1.8-3.5 3.3-4.4 3.3-1 0-8.2-2.7-16.2-5.9-7.9-3.3-22-9.1-31.4-12.9l-17-7-.5-27.9-.5-28-2.7-3.5c-1.5-2-8.5-10.1-15.5-18C428.9 94.6 428.5 94 429.8 94c.5 0 8.6 3.1 17.8 6.9zM156 147.5v40.4l-5.3 2.5c-10.3 4.7-57.2 23.8-59.8 24.3-2.8.5-2 1.3-31.9-31.7-4.7-5.2-12-13.2-16.3-17.9-4.2-4.7-7.6-8.9-7.4-9.5.3-.8 118-48.5 120-48.6.4 0 .7 18.2.7 40.5zm44.5 44.5c.3.5-.5 2.5-1.8 4.2-2.3 3.2-4.9 9-6.2 13.5-.6 2.1-1.3 2.3-6.5 2.3-8.2 0-9-1.1-9-11.4 0-4.5.3-8.6.7-8.9 1-1.1 22.1-.8 22.8.3zm38.5 2c8.4 4.3 14 13.5 14 22.8 0 10.2-5.1 18.1-14.5 22.8-10.9 5.3-24.9 1.7-31.7-8.1-12.3-18 2.1-42.3 23.7-39.8 2.8.3 6.6 1.3 8.5 2.3zm39.5 7.5v10h-14.8l-2.1-5.6c-1.2-3.1-3.3-7.4-4.8-9.6-1.5-2.3-2.4-4.4-2-4.7.3-.4 5.8-.5 12.1-.4l11.6.3v10zm46 0v10h-35l-.3-8.9c-.2-4.9 0-9.6.2-10.3.5-1.1 4-1.3 17.8-1.1l17.3.3v10zm39.9-9.6c.3.5-.4 2.1-1.6 3.6-1.1 1.5-3.3 5.7-4.8 9.4l-2.7 6.6h-19.8l-.3-8.9c-.2-4.9-.1-9.5.2-10.3.4-1 3.8-1.3 14.5-1.3 7.7 0 14.2.4 14.5.9zm37.2 1.6c9.2 3.8 16 15 15.2 25-1.1 13.7-11.7 23.4-25.6 23.5-16.9 0-28.8-15.9-24.2-32.5 1.4-5 7.6-12.7 12.2-15.1 6.5-3.4 15.5-3.7 22.4-.9zm-235.2 15.4c.6 4.1 4.3 9.3 8 11.3 1.1.7 5.7 1.5 10 1.8l7.9.5 1.2 4c3.1 10.5 10.2 18.6 20.3 23.3 4.6 2.1 7.2 2.6 13.7 2.6 6.9 0 9-.4 14.7-3.1 10.5-4.9 14.5-9.6 20.6-24.6l1.2-2.7h91.7l1.3 4.2c3.1 10.6 9.8 18.4 20 23.1 5.5 2.7 7.6 3.1 14.5 3.1 6.5 0 9.1-.5 13.7-2.6 10.1-4.7 18.8-14.8 20.8-24.2l.6-3.1 12.9-.5c7.5-.3 13.9-1 15.1-1.7 3-1.7 7.3-7 8-9.9.3-1.3.9-2.4 1.3-2.4 2.2.1 41.6 17.1 41.6 18 0 1-46 20.9-60 25.9-2.7 1-11.5 4.5-19.5 7.9-8 3.3-20.8 8.6-28.5 11.7-7.7 3.2-19.4 8-26 10.7-6.6 2.7-14 5.8-16.5 6.7-2.5 1-13.5 5.5-24.4 10-11 4.4-20.8 8.1-21.9 8.1-1.5 0-38.7-14.7-48.2-19-2.2-1-49.1-20.2-77-31.5-18-7.3-54.5-22.3-66.3-27.2-5.1-2.1-6-2.9-5-3.9 2.5-2.4 47.2-19.8 51.9-20.3 1.2-.1 1.8 1 2.3 3.8zm-69.3 30.6c3.3 1.4 13.3 5.5 22.2 9.1 8.9 3.6 20.9 8.5 26.7 10.9 5.8 2.4 14.3 5.9 19 7.8 4.7 1.9 17.5 7.2 28.5 11.7 19.2 7.9 27 11.1 52.5 21.5 32.2 13.1 37.9 15.5 42.4 17.5l5 2.1-10 10c-26.7 26.8-46.6 46.4-47.4 46.7-.6.2-9.7-3.1-20.3-7.4-10.5-4.2-23.5-9.4-28.7-11.4-17.7-6.9-85.5-34-88.7-35.5-1.7-.8-13-5.3-25-10S49.5 303.1 47 302c-2.5-1.1-6.2-2.6-8.2-3.4-2.1-.8-3.8-1.9-3.8-2.3 0-.4 1.5-2.4 3.3-4.3 1.8-1.9 7.9-8.7 13.6-15 25.7-28.5 36.6-40 37.9-40 .7 0 4 1.1 7.3 2.5zm434.8.1c1.9 2.4 5.8 6.7 25.6 28.4 28.6 31.3 26.6 28.6 23.3 29.9-10 3.9-54.9 21.9-61.3 24.6C496.8 331.9 383.1 377 382 377c-1.3 0-57-54.9-57-56.2 0-1.1 3.9-2.9 21.5-10.1 26.1-10.6 42.3-17.2 54.5-22.2 6.3-2.6 20.1-8.2 30.5-12.5 10.5-4.3 24.2-9.9 30.5-12.5 6.3-2.6 13.5-5.6 16-6.5 9.5-3.7 36.8-15 42-17.4 7.1-3.2 9.4-3.2 11.9 0zM300.1 340.7c.3 7.7.5 194.1.1 195-.5 1.5-3.2 1.7-6.4.3-1.3-.5-11.7-3.9-23.3-7.5-11.5-3.7-24.8-8-29.5-9.5-4.7-1.6-13.4-4.4-19.5-6.4-6-1.9-24.3-7.7-40.5-12.9s-37.6-12.1-47.5-15.2c-9.9-3.2-22.5-7.2-28-9l-10-3.2-.3-65.3c-.1-36 .1-65.7.5-66.1.5-.4 21.5 7.5 46.8 17.7 25.3 10.2 46.7 18.8 47.5 19.1 48.9 19.4 47 18.8 50.4 17.9 1.8-.4 12.5-10.5 30.4-28.6 15.2-15.4 28-27.9 28.5-28 .4 0 .7.8.8 1.7zm78.7 55.3c1.9 0 31.1-11.2 71-27.1 37.2-15 68.7-27.4 70-27.7l2.2-.4-.2 65.8-.3 65.9-14.5 4.7c-8 2.5-24.6 7.8-37 11.8-12.4 3.9-23.6 7.5-25 8-1.4.5-10.6 3.4-20.5 6.5-16.8 5.3-47.8 15.2-88 28.1-9.3 3-17.5 5.2-18.2 5-1.1-.4-1.3-19.2-1.3-98.4 0-53.8.3-98.2.7-98.6.4-.3 13.6 12.2 29.3 27.9 25.6 25.6 28.9 28.5 31.8 28.5z" />
    <path
        d="M218.8 204.6c-5.2 3.7-7.5 9.8-5.9 15.6 1.5 5.4 2.7 7 7.1 9.7 6.5 3.9 15.8 2 20.2-4.2 2.9-4.1 3.4-11.2 1.1-15.7-4.2-8.1-15.1-10.7-22.5-5.4zm12.8 9.5c1.7 1.9 1.7 2.3.3 4.7-2.6 4.8-8.9 3.3-8.9-2.2 0-4.7 5.2-6.2 8.6-2.5zm156.5-12c-9.9 2.1-15 13-10 21.8 2.8 4.9 6.3 7.3 11.6 7.9 9.1 1 16.7-5.6 16.7-14.6-.1-10.4-8.4-17.2-18.3-15.1zm6.7 11.1c1.9 1.9 1.5 6.6-.7 7.8-3.1 1.6-4.9 1.2-6.7-1.5-1.5-2.3-1.5-2.7 0-5 1.8-2.7 5.4-3.3 7.4-1.3z" />
</svg>